<svg width="41" height="41" viewBox="0 0 41 41" fill="none" xmlns="http://www.w3.org/2000/svg">
<g clip-path="url(#clip0_24_424)">
<path d="M12.8558 23.8203C9.87733 22.3311 9.87733 18.081 12.8558 16.5918L21.5882 12.2256C22.0359 12.0018 22.5625 12.3268 22.5628 12.8271L22.5628 27.584C22.5628 28.0846 22.036 28.4102 21.5882 28.1865L12.8558 23.8203Z" stroke="#898989" stroke-width="2.02054"/>
<path d="M26.9406 25.2578C27.7293 25.0427 28.4588 24.5653 29.04 23.8699C29.852 22.8983 30.3081 21.5805 30.3081 20.2065C30.3081 18.8324 29.852 17.5146 29.04 16.543C28.4588 15.8476 27.7293 15.3703 26.9406 15.1551" stroke="#898989" stroke-width="1.68378" stroke-linecap="round"/>
<path d="M26.0986 19.6957C26.0986 19.5131 26.2521 19.3593 26.4208 19.4291C26.523 19.4714 26.6158 19.5335 26.6939 19.6116C26.7721 19.6898 26.8341 19.7826 26.8764 19.8848C26.9188 19.9869 26.9405 20.0964 26.9405 20.2069C26.9405 20.3175 26.9188 20.427 26.8764 20.5291C26.8341 20.6313 26.7721 20.7241 26.6939 20.8022C26.6158 20.8804 26.523 20.9424 26.4208 20.9847C26.2521 21.0546 26.0986 20.9008 26.0986 20.7182L26.0986 20.2069L26.0986 19.6957Z" fill="#898989" stroke="#898989" stroke-width="0.841892"/>
</g>
<defs>
<clipPath id="clip0_24_424">
<rect width="23.573" height="23.573" fill="white" transform="translate(8.41891 8.41992)"/>
</clipPath>
</defs>
</svg>
